<?xml version="1.0" standalone="no"?> 
<!DOCTYPE svg PUBLIC "-//W3C//DTD SVG 1.1//EN" "http://www.w3.org/Graphics/SVG/1.1/DTD/svg11.dtd">
<svg xmlns="http://www.w3.org/2000/svg" version="1.1" width="800px" height="600px"> 
<circle cx="400" cy="300" r="200" style="fill:none;stroke:black;stroke-width:2"/>
<path d="M400,92.5 A207.5,207.5 0 0,1 496.54216368136406,116.32675580879857 L498.86848087850535,111.90089450298649 L508.1281634911195,131.74929343376377 L487.23689489279883,134.0302010320469 L489.5632120899401,129.60433972623483 A192.5,192.5 0 0,0 400,107.5 z" fill="rgb(0,0,255)" stroke-width="0"/> 
<path d="M512.1829696220365,125.4398919375299 A207.5,207.5 0 0,1 580.5176891483663,197.67886872921235 L584.8675129832668,195.21329930100057 L581.9263990709037,216.91699739962272 L563.1183938087648,207.54114644205936 L567.4682176436652,205.07557701384758 A192.5,192.5 0 0,0 504.0733573602025,138.0586949299976 z" fill="rgb(51,0,255)" stroke-width="0"/> 
<path d="M588.7486390360625,213.80138480210854 A207.5,207.5 0 0,1 607.1801237878044,311.5172178615351 L612.1724159272695,311.7947411834998 L597.9642883761866,328.462967654657 L587.2109552299437,310.4071245736763 L592.2032473694089,310.684647895641 A192.5,192.5 0 0,0 575.1041591057448,220.03260999713686 z" fill="rgb(102,0,255)" stroke-width="0"/> 
<path d="M605.3879491902935,329.5303289417066 A207.5,207.5 0 0,1 568.0643329894173,421.69893169959323 L572.1140759530177,424.6314360778967 L551.1499148708517,430.972146789057 L551.8653611350156,409.96891418637944 L555.915104098616,412.9014185646829 A192.5,192.5 0 0,0 590.5406275620795,327.39560636760734 z" fill="rgb(153,0,255)" stroke-width="0"/> 
<path d="M556.8180366785086,435.8836022936466 A207.5,207.5 0 0,1 475.5893039527224,493.24209460659176 L477.41073296363135,497.8985306212084 L456.34651136828603,491.8985947228995 L468.3035879090865,474.61635054812507 L470.12501691999546,479.27278656274177 A192.5,192.5 0 0,0 545.4817930631947,426.06069128446734 z" fill="rgb(204,0,255)" stroke-width="0"/> 
<path d="M458.4595055445967,499.0947920250082 A207.5,207.5 0 0,1 359.115204999538,503.4322578593921 L358.1300292163943,508.3342399764859 L343.65348863171414,491.8985947228995 L363.0559081321126,483.82432939101693 L362.07073234896893,488.7263115081107 A192.5,192.5 0 0,0 454.2335171919753,484.7023974207907 z" fill="rgb(255,0,255)" stroke-width="0"/> 
<path d="M341.5404944554034,499.09479202500825 A207.5,207.5 0 0,1 255.62173958084304,449.0341166254831 L252.1427453538754,452.6253001586273 L248.85008512914837,430.97214678905704 L269.5377164887136,434.6693824929064 L266.05872226174597,438.2605660260506 A192.5,192.5 0 0,0 345.7664828080248,484.70239742079076 z" fill="rgb(255,0,204)" stroke-width="0"/> 
<path d="M243.18196332149142,435.8836022936467 A207.5,207.5 0 0,1 197.96735171718987,347.31869638773173 L193.0990951320619,348.4589059392433 L202.03571162381346,328.46296765465706 L217.44037805770168,342.75785818168526 L212.5721214725737,343.8980677331969 A192.5,192.5 0 0,0 254.5182069368053,426.0606912844674 z" fill="rgb(255,0,153)" stroke-width="0"/> 
<path d="M194.61205080970646,329.53032894170667 A207.5,207.5 0 0,1 204.45690218885002,230.57992438480755 L199.74502031388258,228.90715147841738 L218.07360092909636,216.91699739962263 L223.30442968871992,237.27101601036827 L218.59254781375245,235.5982431039781 A192.5,192.5 0 0,0 209.45937243792045,327.3956063676074 z" fill="rgb(255,0,102)" stroke-width="0"/> 
<path d="M211.25136096393746,213.8013848021085 A207.5,207.5 0 0,1 273.03000457404374,135.88153589089177 L269.9704866119725,131.92687410513014 L291.87183650888034,131.74929343376385 L285.2680764223287,151.70018303393834 L282.20855846025745,147.74552124817671 A192.5,192.5 0 0,0 224.89584089425523,220.03260999713677 z" fill="rgb(255,0,51)" stroke-width="0"/> 
<path d="M287.81703037796336,125.43989193752998 A207.5,207.5 0 0,1 381.9151833798609,93.2896001459628 L381.4794046661226,88.30862665550407 L399.99999999999994,100 L383.6582982348141,113.21349410779771 L383.22251952107575,108.23252061733899 A192.5,192.5 0 0,0 295.92664263979736,138.0586949299977 z" fill="rgb(255,0,0)" stroke-width="0"/> 
<text x="400" y="300" text-anchor="middle" font-size="16" font-family="Arial" font-weight="bold">Blue-Red Spectrum</text>
<text x="400" y="321" text-anchor="middle" font-size="16" font-family="Arial" font-weight="bold">1100bp</text>
<text x="464.37588923826667" y="80.75585552908734" text-anchor="start" font-size="14" font-family="Arial" font-weight="bold" font-style="normal">0,0,100</text>
<text x="572.688777739948" y="150.36432229350237" text-anchor="start" font-size="14" font-family="Arial" font-weight="bold" font-style="normal">20,0,100</text>
<text x="626.1741994697932" y="267.48105945455427" text-anchor="start" font-size="14" font-family="Arial" font-weight="bold" font-style="normal">40,0,100</text>
<text x="607.8509109385075" y="394.922330470931" text-anchor="start" font-size="14" font-family="Arial" font-weight="bold" font-style="normal">60,0,100</text>
<text x="523.5364267886041" y="492.22643225192485" text-anchor="start" font-size="14" font-family="Arial" font-weight="bold" font-style="normal">80,0,100</text>
<text x="400" y="528.5" text-anchor="middle" font-size="14" font-family="Arial" font-weight="bold" font-style="normal">100,0,100</text>
<text x="276.463573211396" y="492.22643225192496" text-anchor="end" font-size="14" font-family="Arial" font-weight="bold" font-style="normal">100,0,80</text>
<text x="192.14908906149253" y="394.92233047093106" text-anchor="end" font-size="14" font-family="Arial" font-weight="bold" font-style="normal">100,0,60</text>
<text x="173.82580053020686" y="267.4810594545544" text-anchor="end" font-size="14" font-family="Arial" font-weight="bold" font-style="normal">100,0,40</text>
<text x="227.311222260052" y="150.3643222935023" text-anchor="end" font-size="14" font-family="Arial" font-weight="bold" font-style="normal">100,0,20</text>
<text x="335.6241107617333" y="80.75585552908734" text-anchor="end" font-size="14" font-family="Arial" font-weight="bold" font-style="normal">100,0,0</text>
</svg>