<?xml version="1.0" standalone="no"?> 
<!DOCTYPE svg PUBLIC "-//W3C//DTD SVG 1.1//EN" "http://www.w3.org/Graphics/SVG/1.1/DTD/svg11.dtd">
<svg xmlns="http://www.w3.org/2000/svg" version="1.1" width="800px" height="600px"> 
<circle cx="400" cy="300" r="200" style="fill:none;stroke:black;stroke-width:2"/>
<path d="M400,92.5 A207.5,207.5 0 0,1 521.9654398506882,132.1289736671984 L513.1486610663011,144.26422858282262 A192.5,192.5 0 0,0 400,107.5 z" fill="rgb(0,0,255)" stroke-width="0"/> 
<path d="M521.9654398506882,132.1289736671984 A207.5,207.5 0 0,1 551.260990189943,157.95647551979712 L540.3264607786217,168.22468210872745 A192.5,192.5 0 0,0 513.1486610663011,144.26422858282262 z" fill="rgb(255,255,255)" stroke-width="0"/> 
<path d="M551.260990189943,157.95647551979712 A207.5,207.5 0 0,1 599.6602336573267,243.50184873908083 L604.4713236249731,242.14044750387797 L596.4574501457378,262.52373708285506 L580.415873786741,248.9474536798923 L585.2269637543875,247.58605244468944 A192.5,192.5 0 0,0 540.3264607786217,168.22468210872745 z" fill="rgb(0,0,255)" stroke-width="0"/> 
<path d="M278.03456014931186,467.87102633280165 A207.5,207.5 0 0,0 591.0047570913814,381.07670916152426 L595.6072813586436,383.03036480397066 L590.2113032590307,361.80339887498945 L572.5946600223326,373.2620865917388 L577.1971842895948,375.2157422341852 A192.5,192.5 0 0,1 286.8513389336989,455.7357714171774 z" fill="rgb(0,255,0)" stroke-width="0"/> 
<path d="M521.9654398506882,467.87102633280153 A207.5,207.5 0 0,1 418.08481662013907,506.7103998540372 L418.5205953338774,511.6913733444959 L400,500 L416.3417017651859,486.7865058922023 L416.7774804789242,491.767479382661 A192.5,192.5 0 0,0 513.1486610663011,455.7357714171774 z" fill="rgb(255,0,0)" stroke-width="0"/> 
<path d="M278.03456014931186,467.87102633280165 A207.5,207.5 0 0,1 274.89212009952746,465.54234620425353 L283.9360632248628,453.57542961117497 A192.5,192.5 0 0,0 286.8513389336989,455.7357714171774 z" fill="rgb(0,0,0)" stroke-width="0"/> 
<path d="M400,507.5 A207.5,207.5 0 0,1 396.0889487590528,507.46313811901786 L396.3716753547839,492.4658028333057 A192.5,192.5 0 0,0 400,492.5 z" fill="rgb(0,0,0)" stroke-width="0"/> 
<path d="M202.65577286875563,364.12102633280165 A207.5,207.5 0 0,1 263.86775148446975,143.39776210377482 L260.5874563395172,139.62421420266097 L282.4429495415053,138.19660112501055 L276.9889320642799,158.49195370823026 L273.7086369193273,154.7184058071164 A192.5,192.5 0 0,0 216.92162061318294,359.4857714171774 z" fill="rgb(153,0,255)" stroke-width="0"/> 
<path d="M202.65577286875563,364.12102633280165 A207.5,207.5 0 0,1 204.28129847587283,368.9234348658685 L199.5651851861348,370.58424052528704 L206.2833677742738,349.73797743297104 L223.14575163482485,362.28021222819444 L218.42963834508683,363.941017887613 A192.5,192.5 0 0,0 216.92162061318294,359.4857714171774 z" fill="rgb(255,255,255)" stroke-width="0"/> 
<text x="400" y="300" text-anchor="middle" font-size="16" font-family="Arial" font-weight="bold">Example</text>
<text x="400" y="321" text-anchor="middle" font-size="16" font-family="Arial" font-weight="bold">1000bp</text>
<text x="470.6103832146755" y="82.6835860265574" text-anchor="start" font-size="14" font-family="Arial" font-weight="bold" font-style="normal">blue box</text>
<text x="551.1097612264545" y="128.59962058943998" text-anchor="start" font-size="14" font-family="Arial" font-weight="bold" font-style="normal">white box cover</text>
<text x="603.5949907770421" y="196.26317080951355" text-anchor="start" font-size="14" font-family="Arial" font-weight="bold" font-style="normal">blue arrow</text>
<text x="470.6103832146755" y="517.3164139734426" text-anchor="start" font-size="14" font-family="Arial" font-weight="bold" font-style="normal"></text>
<text x="470.6103832146755" y="517.3164139734426" text-anchor="start" font-size="14" font-family="Arial" font-weight="bold" font-style="normal">overlapping arrows</text>
<text x="263.95479262664094" y="483.5863599256212" text-anchor="end" font-size="14" font-family="Arial" font-weight="bold" font-style="italic">HindIII</text>
<text x="397.8464701180267" y="528.489851654395" text-anchor="end" font-size="14" font-family="Arial" font-weight="bold" font-style="italic">SpeI</text>
<text x="182.6835860265574" y="229.38961678532456" text-anchor="end" font-size="14" font-family="Arial" font-weight="bold" font-style="normal">fork-tail</text>
<text x="180.57289282281855" y="363.74946772996395" text-anchor="end" font-size="14" font-family="Arial" font-weight="bold" font-style="normal"></text>
</svg>