<?xml version="1.0" standalone="no"?>
<svg xmlns="http://www.w3.org/2000/svg" xmlns:xlink="http://www.w3.org/1999/xlink" width="800px" height="600px" version="1.1" style="display:inline" id="pic"><circle cx="400" cy="300" r="200" style="fill:none;stroke:#000000;stroke-width:2"/><path d="M523.4349029814193,130.10643118126103 A210,210 0 0,1 543.7548922450246,146.91658824150358 L530.0639501264509,161.49596078993181 A190,190 0 0,0 511.6791979355699,146.28677106875998 z" fill="#800000" stroke-width="0" stroke="#000000"/><path d="M523.4349029814193,469.8935688187389 A210,210 0 0,1 510.28667229187215,478.70884117688524 L499.78317969264623,461.6889515409914 A190,190 0 0,0 511.6791979355699,453.71322893124 z" fill="#808080" stroke-width="0" stroke="#000000"/><path d="M276.5650970185807,469.89356881873897 A210,210 0 0,1 264.11824807041677,460.1129273124041 L277.05936730180565,444.86407709217514 A190,190 0 0,0 288.32080206443015,453.71322893124 z" fill="#808080" stroke-width="0" stroke="#000000"/><text x="400" y="300" text-anchor="middle" font-size="16px" font-family="Arial" font-weight="bold" fill="#000000">pFoobar</text><text x="400" y="318" text-anchor="middle" font-size="14px" font-family="Arial" font-weight="bold" fill="#000000">1000bp</text><text x="543.8028520873045" y="126.17221242978198" text-anchor="start" font-size="12px" font-family="Arial" font-weight="bold" fill="#000000" font-style="normal">T4</text><text x="525.6311390797352" y="487.3824348585753" text-anchor="start" font-size="12px" font-family="Arial" font-weight="bold" fill="#000000" font-style="normal">BamHI</text><text x="260.6108712868206" y="477.38667029002124" text-anchor="end" font-size="12px" font-family="Arial" font-weight="bold" fill="#000000" font-style="normal">EcoRI</text><path d="M544.7138997613432,147.8228426607202 A210,210 0 0,1 538.7654858572523,457.62023961027563 L542.0694259967107,461.37310245813933 L518.5713640322119,461.06157714222434 L522.2457851599604,438.8559253709571 L525.5497252994188,442.6087882188208 A190,190 0 0,0 530.9316235935962,162.31590526446112 z" fill="#008000" stroke="undefined" stroke-width="0"/><path d="M509.16164195034906,479.39826065685196 A210,210 0 0,1 292.97513738123126,480.6811522584292 L290.4269263664987,484.9830844550585 L283.46190406628483,462.5388328866188 L305.7161924548942,459.1714912752829 L303.1679814401616,463.47342347191216 A190,190 0 0,0 498.7652950979349,462.3127120228661 z" fill="#8000ff" stroke="undefined" stroke-width="0"/><defs><path id="OBJ88457" d="M596.4820835314158,297.34653977724344 A 196.5,196.5 0 0,1 594.6001968665645,327.258271762794" stroke="0"/></defs><text font-size="12px" font-family="Times" font-weight="bold" fill="#ffffff" text-anchor="start" font-style="italic"><textPath xmlns:xlink="http://www.w3.org/1999/xlink" xlink:href="#OBJ88457">deh4p</textPath></text><defs><path id="OBJ15974" d="M420.7176104111974,495.4047865812141 A 196.5,196.5 0 0,1 364.62203202831216,493.28903068253567" stroke="0"/></defs><text font-size="12px" font-family="Times" font-weight="bold" fill="#ffffff" text-anchor="start" font-style="italic"><textPath xmlns:xlink="http://www.w3.org/1999/xlink" xlink:href="#OBJ15974">phoA-lacZ</textPath></text><path d="M178.5,300.00000000000006 A221.5,221.5 0 0,1 184.1770306500704,250.17334146283392 L179.3051803261442,249.0485861911146 L190.7675664150662,232.01626123751163 L191.97199116835228,251.97294989758484 L187.1001408444261,250.84819462586552 A218.5,218.5 0 0,0 181.5,300.00000000000006 z" fill="#c0c0c0" stroke="undefined" stroke-width="0"/><path d="M331.5527357459491,89.34098164062348 A221.5,221.5 0 0,0 208.5631313672543,188.58108182140313 L204.24175735748577,186.06598208825196 L200.93804845747562,206.32855585568421 L215.47732978288394,192.605241394445 L211.1559557731154,190.09014166129384 A218.5,218.5 0 0,1 332.47978672907396,92.19415118950894 z" fill="#c0c0c0" stroke="undefined" stroke-width="0"/><text x="165.81909444489284" y="262.9093883389613" text-anchor="end" font-size="12px" font-family="Arial" font-weight="bold" fill="#c0c0c0" font-style="normal">transposon 1</text><text x="243.20295673176204" y="122.14866539061813" text-anchor="end" font-size="12px" font-family="Arial" font-weight="bold" fill="#c0c0c0" font-style="normal">transposon 2</text></svg>