<?xml version="1.0" standalone="no"?> 
<!DOCTYPE svg PUBLIC "-//W3C//DTD SVG 1.1//EN" "http://www.w3.org/Graphics/SVG/1.1/DTD/svg11.dtd">
<svg xmlns="http://www.w3.org/2000/svg" version="1.1" width="800px" height="600px"> 
<circle cx="400" cy="300" r="200" style="fill:none;stroke:black;stroke-width:2"/>
<path d="M400,92.5 A207.5,207.5 0 0,1 487.69328931119514,111.94113418989514 L489.8063806198986,107.40959525471189 L500,126.79491924311225 L479.24092407638113,130.06728993062814 L481.3540153850846,125.53575099544489 A192.5,192.5 0 0,0 400,107.5 z" fill="rgb(255,0,0)" stroke-width="0"/> 
<path d="M503.75,120.29972871472896 A207.5,207.5 0 0,1 569.9740491899657,180.9828894571579 L574.0698094114107,178.1150072754027 L573.2050807568877,199.99999999999997 L553.591008304186,192.45441818417885 L557.6867685256309,189.5865360024236 A192.5,192.5 0 0,0 496.25,133.29010977149554 z" fill="rgb(255,128,0)" stroke-width="0"/> 
<path d="M579.700271285271,196.24999999999997 A207.5,207.5 0 0,1 606.7103998540372,281.91518337986093 L611.6913733444959,281.47940466612266 L600,300 L586.7865058922023,283.6582982348141 L591.767479382661,283.2225195210758 A192.5,192.5 0 0,0 566.7098902285045,203.74999999999997 z" fill="rgb(255,255,0)" stroke-width="0"/> 
<path d="M607.5,300 A207.5,207.5 0 0,1 588.0588658101049,387.69328931119514 L592.5904047452882,389.8063806198986 L573.2050807568878,399.99999999999994 L569.9327100693719,379.24092407638113 L574.4642490045551,381.3540153850846 A192.5,192.5 0 0,0 592.5,300 z" fill="rgb(128,255,0)" stroke-width="0"/> 
<path d="M579.700271285271,403.74999999999994 A207.5,207.5 0 0,1 519.017110542842,469.97404918996585 L521.8849927245973,474.0698094114108 L500,473.20508075688775 L507.5455818158211,453.59100830418595 L510.41346399757634,457.68676852563095 A192.5,192.5 0 0,0 566.7098902285045,396.24999999999994 z" fill="rgb(0,255,0)" stroke-width="0"/> 
<path d="M503.75,479.700271285271 A207.5,207.5 0 0,1 418.08481662013907,506.7103998540372 L418.5205953338774,511.6913733444959 L400,500 L416.3417017651859,486.7865058922023 L416.7774804789242,491.767479382661 A192.5,192.5 0 0,0 496.25,466.7098902285045 z" fill="rgb(0,255,128)" stroke-width="0"/> 
<path d="M400,507.5 A207.5,207.5 0 0,1 312.3067106888048,488.05886581010486 L310.1936193801013,492.5904047452881 L300,473.2050807568877 L320.7590759236188,469.93271006937186 L318.64598461491533,474.4642490045551 A192.5,192.5 0 0,0 400,492.5 z" fill="rgb(0,255,255)" stroke-width="0"/> 
<path d="M296.25,479.700271285271 A207.5,207.5 0 0,1 230.02595081003426,419.01711054284215 L225.93019058858928,421.88499272459734 L226.79491924311233,400.0000000000001 L246.40899169581408,407.5455818158212 L242.31323147436913,410.4134639975764 A192.5,192.5 0 0,0 303.75,466.70989022850443 z" fill="rgb(0,128,255)" stroke-width="0"/> 
<path d="M220.29972871472904,403.7500000000001 A207.5,207.5 0 0,1 193.2896001459628,318.08481662013907 L188.30862665550407,318.5205953338774 L200,300.00000000000006 L213.21349410779771,316.3417017651859 L208.232520617339,316.7774804789242 A192.5,192.5 0 0,0 233.29010977149562,396.2500000000001 z" fill="rgb(0,0,255)" stroke-width="0"/> 
<path d="M192.5,300.00000000000006 A207.5,207.5 0 0,1 211.94113418989514,212.30671068880483 L207.4095952547119,210.19361938010132 L226.79491924311228,199.99999999999997 L230.06728993062814,220.7590759236188 L225.5357509954449,218.64598461491533 A192.5,192.5 0 0,0 207.5,300.00000000000006 z" fill="rgb(128,0,255)" stroke-width="0"/> 
<path d="M220.29972871472899,196.24999999999997 A207.5,207.5 0 0,1 280.98288945715785,130.02595081003426 L278.1150072754026,125.93019058858928 L299.9999999999999,126.79491924311233 L292.4544181841788,146.40899169581408 L289.58653600242354,142.31323147436913 A192.5,192.5 0 0,0 233.29010977149557,203.74999999999997 z" fill="rgb(255,0,255)" stroke-width="0"/> 
<path d="M296.2499999999999,120.29972871472904 A207.5,207.5 0 0,1 381.9151833798609,93.2896001459628 L381.4794046661226,88.30862665550407 L399.99999999999994,100 L383.6582982348141,113.21349410779771 L383.22251952107575,108.23252061733899 A192.5,192.5 0 0,0 303.7499999999999,133.29010977149562 z" fill="rgb(255,0,128)" stroke-width="0"/> 
<text x="400" y="300" text-anchor="middle" font-size="16" font-family="Arial" font-weight="bold">Rainbow ColorWheel</text>
<text x="400" y="321" text-anchor="middle" font-size="16" font-family="Arial" font-weight="bold">1200bp</text>
<text x="459.140151805926" y="79.2859486929479" text-anchor="start" font-size="14" font-family="Arial" font-weight="bold" font-style="normal">100,0,0</text>
<text x="561.5738995011261" y="138.4261004988739" text-anchor="start" font-size="14" font-family="Arial" font-weight="bold" font-style="normal">100,50,0</text>
<text x="620.714051307052" y="240.85984819407395" text-anchor="start" font-size="14" font-family="Arial" font-weight="bold" font-style="normal">100,100,0</text>
<text x="620.7140513070522" y="359.14015180592594" text-anchor="start" font-size="14" font-family="Arial" font-weight="bold" font-style="normal">50,100,0</text>
<text x="561.5738995011261" y="461.5738995011261" text-anchor="start" font-size="14" font-family="Arial" font-weight="bold" font-style="normal">0,100,0</text>
<text x="459.14015180592594" y="520.7140513070522" text-anchor="start" font-size="14" font-family="Arial" font-weight="bold" font-style="normal">0,100,50</text>
<text x="340.8598481940741" y="520.7140513070522" text-anchor="end" font-size="14" font-family="Arial" font-weight="bold" font-style="normal">0,100,100</text>
<text x="238.4261004988739" y="461.5738995011261" text-anchor="end" font-size="14" font-family="Arial" font-weight="bold" font-style="normal">0,50,100</text>
<text x="179.28594869294795" y="359.14015180592617" text-anchor="end" font-size="14" font-family="Arial" font-weight="bold" font-style="normal">0,0,100</text>
<text x="179.28594869294793" y="240.85984819407392" text-anchor="end" font-size="14" font-family="Arial" font-weight="bold" font-style="normal">50,0,100</text>
<text x="238.42610049887386" y="138.42610049887392" text-anchor="end" font-size="14" font-family="Arial" font-weight="bold" font-style="normal">100,0,100</text>
<text x="340.85984819407383" y="79.28594869294795" text-anchor="end" font-size="14" font-family="Arial" font-weight="bold" font-style="normal">100,0,50</text>
</svg>